name ../VV_Laxity/vv_30.mot
datacolumns  10
datarows 46
range   21.00000000 21.45000000
cursor 1.0 1.0 0.0
keys m_key
wrap
enforce_loops no
enforce_constraints no
calc_derivatives -1.000000
event_color 0.000000 0.000000 0.000000
endheader
            time femur_r_force_vx femur_r_force_vy femur_r_force_vz femur_r_force_px femur_r_force_py femur_r_force_pz femur_r_torque_x femur_r_torque_y femur_r_torque_z 
     21.00000000       0.00000000       0.00000000       0.00000000      -0.03798529      -0.50443412       0.00000000       7.63038553      -4.40540514       0.00000000 
     21.01000000       0.00000000       0.00000000       0.00000000      -0.03798529      -0.50443412       0.00000000       7.64552103      -4.41414363       0.00000000 
     21.02000000       0.00000000       0.00000000       0.00000000      -0.03798529      -0.50443412       0.00000000       7.66055927      -4.42282596       0.00000000 
     21.03000000       0.00000000       0.00000000       0.00000000      -0.03798529      -0.50443412       0.00000000       7.67549980      -4.43145187       0.00000000 
     21.04000000       0.00000000       0.00000000       0.00000000      -0.03798529      -0.50443412       0.00000000       7.69034217      -4.44002112       0.00000000 
     21.05000000       0.00000000       0.00000000       0.00000000      -0.03798529      -0.50443412       0.00000000       7.70508596      -4.44853346       0.00000000 
     21.06000000       0.00000000       0.00000000       0.00000000      -0.03798529      -0.50443412       0.00000000       7.71973074      -4.45698862       0.00000000 
     21.07000000       0.00000000       0.00000000       0.00000000      -0.03798529      -0.50443412       0.00000000       7.73427607      -4.46538637       0.00000000 
     21.08000000       0.00000000       0.00000000       0.00000000      -0.03798529      -0.50443412       0.00000000       7.74872152      -4.47372645       0.00000000 
     21.09000000       0.00000000       0.00000000       0.00000000      -0.03798529      -0.50443412       0.00000000       7.76306667      -4.48200863       0.00000000 
     21.10000000       0.00000000       0.00000000       0.00000000      -0.03798529      -0.50443412       0.00000000       7.77731111      -4.49023266       0.00000000 
     21.11000000       0.00000000       0.00000000       0.00000000      -0.03798529      -0.50443412       0.00000000       7.79145441      -4.49839830       0.00000000 
     21.12000000       0.00000000       0.00000000       0.00000000      -0.03798529      -0.50443412       0.00000000       7.80549616      -4.50650531       0.00000000 
     21.13000000       0.00000000       0.00000000       0.00000000      -0.03798529      -0.50443412       0.00000000       7.81943595      -4.51455345       0.00000000 
     21.14000000       0.00000000       0.00000000       0.00000000      -0.03798529      -0.50443412       0.00000000       7.83327337      -4.52254249       0.00000000 
     21.15000000       0.00000000       0.00000000       0.00000000      -0.03798529      -0.50443412       0.00000000       7.84700800      -4.53047218       0.00000000 
     21.16000000       0.00000000       0.00000000       0.00000000      -0.03798529      -0.50443412       0.00000000       7.86063946      -4.53834231       0.00000000 
     21.17000000       0.00000000       0.00000000       0.00000000      -0.03798529      -0.50443412       0.00000000       7.87416733      -4.54615263       0.00000000 
     21.18000000       0.00000000       0.00000000       0.00000000      -0.03798529      -0.50443412       0.00000000       7.88759123      -4.55390292       0.00000000 
     21.19000000       0.00000000       0.00000000       0.00000000      -0.03798529      -0.50443412       0.00000000       7.90091075      -4.56159295       0.00000000 
     21.20000000       0.00000000       0.00000000       0.00000000      -0.03798529      -0.50443412       0.00000000       7.91412551      -4.56922250       0.00000000 
     21.21000000       0.00000000       0.00000000       0.00000000      -0.03798529      -0.50443412       0.00000000       7.92723512      -4.57679133       0.00000000 
     21.22000000       0.00000000       0.00000000       0.00000000      -0.03798529      -0.50443412       0.00000000       7.94023920      -4.58429924       0.00000000 
     21.23000000       0.00000000       0.00000000       0.00000000      -0.03798529      -0.50443412       0.00000000       7.95313736      -4.59174600       0.00000000 
     21.24000000       0.00000000       0.00000000       0.00000000      -0.03798529      -0.50443412       0.00000000       7.96592923      -4.59913138       0.00000000 
     21.25000000       0.00000000       0.00000000       0.00000000      -0.03798529      -0.50443412       0.00000000       7.97861442      -4.60645518       0.00000000 
     21.26000000       0.00000000       0.00000000       0.00000000      -0.03798529      -0.50443412       0.00000000       7.99119257      -4.61371718       0.00000000 
     21.27000000       0.00000000       0.00000000       0.00000000      -0.03798529      -0.50443412       0.00000000       8.00366332      -4.62091717       0.00000000 
     21.28000000       0.00000000       0.00000000       0.00000000      -0.03798529      -0.50443412       0.00000000       8.01602628      -4.62805493       0.00000000 
     21.29000000       0.00000000       0.00000000       0.00000000      -0.03798529      -0.50443412       0.00000000       8.02828110      -4.63513026       0.00000000 
     21.30000000       0.00000000       0.00000000       0.00000000      -0.03798529      -0.50443412       0.00000000       8.04042743      -4.64214294       0.00000000 
     21.31000000       0.00000000       0.00000000       0.00000000      -0.03798529      -0.50443412       0.00000000       8.05246490      -4.64909278       0.00000000 
     21.32000000       0.00000000       0.00000000       0.00000000      -0.03798529      -0.50443412       0.00000000       8.06439316      -4.65597956       0.00000000 
     21.33000000       0.00000000       0.00000000       0.00000000      -0.03798529      -0.50443412       0.00000000       8.07621186      -4.66280309       0.00000000 
     21.34000000       0.00000000       0.00000000       0.00000000      -0.03798529      -0.50443412       0.00000000       8.08792065      -4.66956317       0.00000000 
     21.35000000       0.00000000       0.00000000       0.00000000      -0.03798529      -0.50443412       0.00000000       8.09951920      -4.67625959       0.00000000 
     21.36000000       0.00000000       0.00000000       0.00000000      -0.03798529      -0.50443412       0.00000000       8.11100716      -4.68289216       0.00000000 
     21.37000000       0.00000000       0.00000000       0.00000000      -0.03798529      -0.50443412       0.00000000       8.12238419      -4.68946070       0.00000000 
     21.38000000       0.00000000       0.00000000       0.00000000      -0.03798529      -0.50443412       0.00000000       8.13364996      -4.69596499       0.00000000 
     21.39000000       0.00000000       0.00000000       0.00000000      -0.03798529      -0.50443412       0.00000000       8.14480413      -4.70240486       0.00000000 
     21.40000000       0.00000000       0.00000000       0.00000000      -0.03798529      -0.50443412       0.00000000       8.15584639      -4.70878011       0.00000000 
     21.41000000       0.00000000       0.00000000       0.00000000      -0.03798529      -0.50443412       0.00000000       8.16677641      -4.71509056       0.00000000 
     21.42000000       0.00000000       0.00000000       0.00000000      -0.03798529      -0.50443412       0.00000000       8.17759387      -4.72133602       0.00000000 
     21.43000000       0.00000000       0.00000000       0.00000000      -0.03798529      -0.50443412       0.00000000       8.18829844      -4.72751631       0.00000000 
     21.44000000       0.00000000       0.00000000       0.00000000      -0.03798529      -0.50443412       0.00000000       8.19888982      -4.73363125       0.00000000 
     21.45000000       0.00000000       0.00000000       0.00000000      -0.03798529      -0.50443412       0.00000000       8.20936770      -4.73968065       0.00000000 
